<svg width="50" height="50" viewBox="0 0 50 50" fill="none" xmlns="http://www.w3.org/2000/svg">
<path d="M49.4198 35.7739C47.4761 35.3821 46.0107 36.7861 44.1756 34.694C43.696 34.1477 43.0034 34.4557 42.7837 35.121C41.2086 39.8962 37.9322 37.5892 36.431 34.2445C36.1401 33.5971 35.3166 33.6532 35.0138 34.2445C33.9762 37.1933 31.9781 37.5565 29.0191 35.334C28.5491 34.8565 27.7782 35.0171 27.6015 35.7687C26.3133 41.2505 21.8116 39.7445 20.4248 35.24C20.355 35.0131 20.2048 34.903 20.0487 34.8833C19.7332 34.4245 19.0185 34.287 18.7722 34.9305C16.9982 39.5629 13.7053 38.8538 11.6558 34.9366C11.2858 34.2297 10.5221 34.4748 10.2795 35.1456C8.55587 39.9113 3.53353 39.8018 3.62297 34.0731C3.63278 33.4386 2.81515 33.3141 2.67688 33.9245C1.05912 41.064 8.57922 42.3021 11.1842 37.0614C13.8749 40.6157 17.9098 41.3451 19.834 36.5616C21.4757 41.8079 26.8385 42.8398 28.8318 37.6197C31.363 39.5842 33.7742 39.2756 35.6765 36.4846C37.9964 40.3324 42.1303 41.7499 43.9654 37.0019C45.6495 38.3257 46.7668 37.3996 49.2035 37.6265C50.1129 37.7116 50.3207 35.9558 49.4198 35.7739Z" fill="#00B2A0"/>
<path d="M46.3749 43.4668C45.6125 44.922 45.3489 46.226 43.7158 46.9373C41.7055 47.8135 39.7045 45.7229 38.7139 44.0088C38.3721 43.4172 37.543 43.3034 37.2238 44.0088C35.8244 47.1007 32.7253 46.3457 31.4029 43.3617C31.0778 42.6276 29.9783 42.7586 29.8432 43.5984C29.1002 48.2241 25.7638 48.7137 23.5293 45.361C23.7732 44.4583 22.501 43.8438 22.1541 44.7274C20.2784 49.5069 16.6164 48.973 14.491 44.7077C14.1221 43.9675 13.2957 44.2271 13.0574 44.9253C11.33 49.9888 8.63957 47.5801 7.12982 44.0948C6.83578 43.4156 5.99717 43.6508 5.8199 44.2936C4.99483 47.2872 3.63555 47.8461 1.34558 48.6206C0.914332 48.7667 0.980942 49.6361 1.45518 49.5627C4.079 49.1564 5.51206 48.6141 6.58446 46.3441C8.78765 50.3409 11.8634 51.1572 13.9273 46.9518C16.6034 50.8434 20.9023 51.287 23.0322 46.657C25.3981 50.3957 29.3658 50.2117 30.9547 46.1376C33.0045 48.9464 35.9879 49.3411 38.052 46.1977C41.1238 49.7856 47.4062 50.5887 47.6301 43.8626C47.658 43.0605 46.7122 42.8228 46.3749 43.4668Z" fill="#00B2A0"/>
<path d="M14.1106 7.50507C13.5963 7.67895 13.3935 8.12751 13.4092 8.5804C9.76498 9.20593 7.40574 13.383 7.12417 17.5845C6.7391 23.3329 10.9422 26.7097 15.4993 26.2809C20.1589 25.8428 23.1901 21.0025 23.0531 15.8007C22.9162 10.605 18.6794 5.95773 14.1106 7.50507ZM14.8693 23.653C11.5247 23.9717 9.36107 21.3478 9.42502 17.5845C9.49216 13.6401 12.0937 11.0391 15.1095 9.99917C15.1647 9.98006 15.2045 9.94738 15.2493 9.9184C18.1892 10.4511 20.4126 11.7506 20.7249 15.8001C21.0492 20.0006 18.3944 23.3163 14.8693 23.653Z" fill="#00B2A0"/>
<path d="M9.86946 7.33132C9.32092 6.63796 8.71319 6.02877 8.09088 5.4276C7.47386 4.83135 6.81944 3.67771 5.94952 3.77205C5.48882 3.822 5.17673 4.16143 5.14462 4.70711C5.08358 5.74267 5.96252 6.25136 6.60182 6.77947C7.33268 7.3828 8.09194 7.92263 8.77025 8.60859C9.52287 9.37008 10.5528 8.19485 9.86946 7.33132Z" fill="#00B2A0"/>
<path d="M4.82733 10.4497C5.11978 10.4907 4.8613 10.4414 4.78407 10.4134C4.66545 10.3699 4.54921 10.3178 4.43324 10.266C4.30188 10.2077 4.17184 10.1448 4.04207 10.0819C4.03331 10.0776 4.02853 10.0755 4.01553 10.0687C3.89186 9.79276 3.67929 9.57048 3.40569 9.4709C2.91712 9.29239 2.17405 8.86602 1.64594 9.05871C1.34739 9.16784 1.03451 9.45486 0.976388 9.83653C0.976388 9.83653 0.976122 9.83808 0.976122 9.83869C0.920923 10.2003 0.944807 10.6708 1.22266 10.9223C1.37738 11.0617 1.55837 11.1604 1.74705 11.2454C1.59419 11.2448 1.7176 11.2532 1.85586 11.2905C1.95379 11.3296 2.05038 11.3697 2.15123 11.4008C2.39432 11.4958 2.63714 11.5923 2.8789 11.6906C3.0177 11.7477 3.16074 11.7526 3.299 11.7236C3.79606 11.8771 4.34036 12.051 4.8276 12.0165C5.71344 11.9536 5.67549 10.569 4.82733 10.4497Z" fill="#00B2A0"/>
<path d="M3.30909 19.2588C2.93703 19.6211 2.50286 19.905 2.07985 20.1772C1.86117 20.3181 1.63507 20.4639 1.40074 20.5666C1.26035 20.628 1.0369 20.5765 1.3458 20.6421C1.19241 20.6098 1.04698 20.6064 0.894388 20.5873C-0.391913 20.426 -0.27488 23.1242 1.14305 22.7222C1.66532 22.5742 2.199 21.9952 2.64298 21.6244C3.15809 21.1943 3.6724 20.7241 4.09701 20.1741C4.58239 19.5458 3.85604 18.7258 3.30909 19.2588Z" fill="#00B2A0"/>
<path d="M6.58671 24.6062C6.15095 25.3831 5.75368 26.1883 5.33915 26.9804C4.88986 27.8383 4.12875 28.4781 4.02897 29.5047C3.96528 30.1601 4.58308 30.4847 5.03927 30.3987C5.97209 30.223 6.42722 28.8437 6.76823 27.9503C7.12013 27.0285 7.33641 26.0616 7.61825 25.1109C7.8348 24.3787 6.92189 24.0081 6.58671 24.6062Z" fill="#00B2A0"/>
<path d="M15.4027 27.3986C15.3109 26.8502 14.5808 26.8764 14.4738 27.3986C14.1931 28.7715 13.8643 30.1326 13.5885 31.5067C13.5219 31.8384 13.5792 32.2222 13.8056 32.4609C13.7685 32.4032 13.7727 32.4146 13.8181 32.4945C14.088 33.0068 14.6551 32.9483 14.9348 32.4945C14.6793 32.9088 15.1158 32.2938 15.1315 32.2623C15.2344 32.0579 15.2432 31.8433 15.2541 31.614C15.2769 31.1392 15.3249 30.6656 15.3639 30.1924C15.4406 29.2697 15.5566 28.3171 15.4027 27.3986Z" fill="#00B2A0"/>
<path d="M25.0979 28.2096C24.4304 27.0973 23.3705 26.3833 22.7638 25.2346C22.3485 24.4478 21.3974 25.1332 21.7182 25.9446C21.9964 26.6478 22.4212 27.2317 22.8599 27.8073C23.0693 28.082 23.2837 28.3502 23.4679 28.6487C23.7192 29.0559 23.8225 29.5134 24.3123 29.5927C24.5942 29.6383 24.9158 29.5735 25.0581 29.2397C25.0713 29.2088 25.0846 29.178 25.0976 29.1469C25.2192 28.8626 25.2659 28.4899 25.0979 28.2096Z" fill="#00B2A0"/>
<path d="M28.981 19.9104C27.8576 19.9792 26.734 20.0452 25.6107 20.1102C24.5998 20.1688 24.5998 21.8737 25.6107 21.9325C26.7343 21.9979 27.8576 22.0639 28.981 22.132C30.2145 22.2075 30.2145 19.8355 28.981 19.9104Z" fill="#00B2A0"/>
<path d="M28.9814 7.09895C27.9623 7.07429 27.1386 8.49614 26.5279 9.32207C25.8716 10.2093 25.295 11.1709 24.6259 12.0465C24.1148 12.7155 24.9027 13.6419 25.4725 13.0299C26.1471 12.3048 26.7596 11.5079 27.4071 10.751C27.7728 10.3237 28.1513 9.89334 28.5663 9.53047C29.0766 9.08499 29.4776 8.9404 29.7045 8.20141C29.8731 7.65296 29.4394 7.11005 28.9814 7.09895Z" fill="#00B2A0"/>
<path d="M24.085 1.2963C23.4818 1.74579 23.0795 2.47583 22.665 3.14329C22.1817 3.92143 21.7223 4.70327 21.1634 5.41296C20.5305 6.21669 21.5151 7.3731 22.1947 6.611C22.7223 6.01907 23.1894 5.37381 23.6471 4.70912C24.1386 3.99573 24.7724 3.34245 25.1768 2.56431C25.5828 1.78371 24.7654 0.789458 24.085 1.2963Z" fill="#00B2A0"/>
<path d="M16.5488 0.226597C16.2548 -0.0755323 15.87 -0.0755323 15.5759 0.226597C14.9987 0.819757 15.2649 1.85532 15.3129 2.64486C15.3681 3.55064 15.4273 4.45548 15.4982 5.36002C15.5642 6.20352 16.5605 6.20352 16.6266 5.36002C16.6974 4.45517 16.7566 3.55094 16.8118 2.64486C16.8598 1.85563 17.126 0.819449 16.5488 0.226597Z" fill="#00B2A0"/>
</svg>
